<?xml version="1.0" encoding="utf-8"?>
<!-- Generator: Adobe Illustrator 23.0.1, SVG Export Plug-In . SVG Version: 6.00 Build 0)  -->
<svg version="1.1" id="logo_1_" xmlns="http://www.w3.org/2000/svg" xmlns:xlink="http://www.w3.org/1999/xlink" x="0px" y="0px"
	 viewBox="0 0 1024 1024" style="enable-background:new 0 0 1024 1024;" xml:space="preserve">
<style type="text/css">
	.st0{display:none;fill:#191919;}
	.st1{display:none;}
	.st2{display:inline;fill:#FFFFFF;}
	.st3{display:inline;}
	.st4{fill:#ED1C24;}
	.st5{display:inline;fill:#C61017;}
	.st6{display:inline;fill:#ED1C24;}
	.st7{fill:#191919;}
	.st8{display:inline;fill:#AF101B;}
	.st9{fill:#AF101B;}
</style>
<rect x="2248" y="0" class="st0" width="1400" height="800"/>
<g class="st1">
	<rect x="-1517.58" y="39.72" class="st2" width="28.99" height="610.21"/>
	<rect x="-1260.68" y="39.72" class="st2" width="28.99" height="610.21"/>
	<rect x="-1517.61" y="591.89" class="st2" width="285.93" height="58.04"/>
	<rect x="-1517.61" y="39.72" class="st2" width="285.93" height="47.95"/>
	<rect x="-1886.64" y="10.98" class="st2" width="654.96" height="28.99"/>
	<rect x="-1886.64" y="-374.07" class="st2" width="82.36" height="413.78"/>
	<rect x="-1886.64" y="-117.14" class="st2" width="1023.64" height="28.99"/>
	<rect x="-1886.64" y="-374.07" class="st2" width="1023.99" height="28.99"/>
	<rect x="-920.69" y="-374.07" class="st2" width="58.04" height="285.93"/>
</g>
<g class="st1">
	<g class="st3">
		<path class="st4" d="M-1604.79,144.31h-244.08v575.92c0,18.94,15.35,34.29,34.29,34.29h217.35c18.94,0,34.29-15.35,34.29-34.29
			V213.67c0-20.16-8.61-38.31-22.34-50.98L-1604.79,144.31z"/>
		<path class="st4" d="M-1632.31,144.31h1.31C-1631.84,144.29-1632.31,144.31-1632.31,144.31z"/>
	</g>
	<path class="st5" d="M-1604.79,144.31l-129.83-127.86h-481.16c-1.17,0-2.13,0.95-2.13,2.13v56.36c0,38.31,31.06,69.37,69.37,69.37
		l515.85,0.01c0,0,29.83,1.03,43.78,14.98L-1604.79,144.31z"/>
	<path class="st6" d="M-1227.75-269.48h-921.23c-38.06,0-68.92,30.86-68.92,68.92V16.45l0.21,63.93c0,0,1.94-52.3,49.1-63.93h940.84
		c18.69,0,33.84-15.15,33.84-33.84v-218.24C-1193.91-254.33-1209.06-269.48-1227.75-269.48z"/>
	<g class="st3">
		<g>
			<path class="st7" d="M-1287.54-223.52h27.13c4.69,0,8.48-3.8,8.48-8.48v0c0-4.69-3.8-8.48-8.48-8.48h-27.13
				c-4.69,0-8.48,3.8-8.48,8.48v0C-1296.03-227.32-1292.23-223.52-1287.54-223.52z"/>
			<path class="st7" d="M-1363.86-223.52h27.13c4.69,0,8.48-3.8,8.48-8.48v0c0-4.69-3.8-8.48-8.48-8.48h-27.13
				c-4.69,0-8.48,3.8-8.48,8.48v0C-1372.35-227.32-1368.55-223.52-1363.86-223.52z"/>
			<path class="st7" d="M-1440.18-223.52h27.13c4.69,0,8.48-3.8,8.48-8.48v0c0-4.69-3.8-8.48-8.48-8.48h-27.13
				c-4.69,0-8.48,3.8-8.48,8.48v0C-1448.66-227.32-1444.86-223.52-1440.18-223.52z"/>
			<path class="st7" d="M-1516.5-223.52h27.13c4.69,0,8.48-3.8,8.48-8.48v0c0-4.69-3.8-8.48-8.48-8.48h-27.13
				c-4.69,0-8.48,3.8-8.48,8.48v0C-1524.98-227.32-1521.18-223.52-1516.5-223.52z"/>
			<path class="st7" d="M-1592.81-223.52h27.13c4.69,0,8.48-3.8,8.48-8.48v0c0-4.69-3.8-8.48-8.48-8.48h-27.13
				c-4.69,0-8.48,3.8-8.48,8.48v0C-1601.3-227.32-1597.5-223.52-1592.81-223.52z"/>
			<path class="st7" d="M-1669.13-223.52h27.13c4.69,0,8.48-3.8,8.48-8.48v0c0-4.69-3.8-8.48-8.48-8.48h-27.13
				c-4.69,0-8.48,3.8-8.48,8.48v0C-1677.61-227.32-1673.81-223.52-1669.13-223.52z"/>
			<path class="st7" d="M-1745.45-223.52h27.13c4.69,0,8.48-3.8,8.48-8.48v0c0-4.69-3.8-8.48-8.48-8.48h-27.13
				c-4.69,0-8.48,3.8-8.48,8.48v0C-1753.93-227.32-1750.13-223.52-1745.45-223.52z"/>
			<path class="st7" d="M-1821.76-223.52h27.13c4.69,0,8.48-3.8,8.48-8.48v0c0-4.69-3.8-8.48-8.48-8.48h-27.13
				c-4.69,0-8.48,3.8-8.48,8.48v0C-1830.25-227.32-1826.45-223.52-1821.76-223.52z"/>
			<path class="st7" d="M-1898.08-223.52h27.13c4.69,0,8.48-3.8,8.48-8.48v0c0-4.69-3.8-8.48-8.48-8.48h-27.13
				c-4.69,0-8.48,3.8-8.48,8.48v0C-1906.56-227.32-1902.77-223.52-1898.08-223.52z"/>
			<path class="st7" d="M-1974.4-223.52h27.13c4.69,0,8.48-3.8,8.48-8.48v0c0-4.69-3.8-8.48-8.48-8.48h-27.13
				c-4.69,0-8.48,3.8-8.48,8.48v0C-1982.88-227.32-1979.08-223.52-1974.4-223.52z"/>
			<path class="st7" d="M-2050.71-223.52h27.13c4.69,0,8.48-3.8,8.48-8.48v0c0-4.69-3.8-8.48-8.48-8.48h-27.13
				c-4.69,0-8.48,3.8-8.48,8.48v0C-2059.2-227.32-2055.4-223.52-2050.71-223.52z"/>
			<path class="st7" d="M-2127.03-223.52h27.13c4.69,0,8.48-3.8,8.48-8.48v0c0-4.69-3.8-8.48-8.48-8.48h-27.13
				c-4.69,0-8.48,3.8-8.48,8.48v0C-2135.51-227.32-2131.72-223.52-2127.03-223.52z"/>
		</g>
		<g>
			<path class="st7" d="M-1287.57-12.55h27.13c4.69,0,8.48-3.8,8.48-8.48v0c0-4.69-3.8-8.48-8.48-8.48h-27.13
				c-4.69,0-8.48,3.8-8.48,8.48v0C-1296.05-16.35-1292.25-12.55-1287.57-12.55z"/>
			<path class="st7" d="M-1363.89-12.55h27.13c4.69,0,8.48-3.8,8.48-8.48v0c0-4.69-3.8-8.48-8.48-8.48h-27.13
				c-4.69,0-8.48,3.8-8.48,8.48v0C-1372.37-16.35-1368.57-12.55-1363.89-12.55z"/>
			<path class="st7" d="M-1440.2-12.55h27.13c4.69,0,8.48-3.8,8.48-8.48v0c0-4.69-3.8-8.48-8.48-8.48h-27.13
				c-4.69,0-8.48,3.8-8.48,8.48v0C-1448.69-16.35-1444.89-12.55-1440.2-12.55z"/>
			<path class="st7" d="M-1516.52-12.55h27.13c4.69,0,8.48-3.8,8.48-8.48v0c0-4.69-3.8-8.48-8.48-8.48h-27.13
				c-4.69,0-8.48,3.8-8.48,8.48v0C-1525-16.35-1521.21-12.55-1516.52-12.55z"/>
			<path class="st7" d="M-1592.84-12.55h27.13c4.69,0,8.48-3.8,8.48-8.48v0c0-4.69-3.8-8.48-8.48-8.48h-27.13
				c-4.69,0-8.48,3.8-8.48,8.48v0C-1601.32-16.35-1597.52-12.55-1592.84-12.55z"/>
			<path class="st7" d="M-1669.15-12.55h27.13c4.69,0,8.48-3.8,8.48-8.48v0c0-4.69-3.8-8.48-8.48-8.48h-27.13
				c-4.69,0-8.48,3.8-8.48,8.48v0C-1677.64-16.35-1673.84-12.55-1669.15-12.55z"/>
			<path class="st7" d="M-1745.47-12.55h27.13c4.69,0,8.48-3.8,8.48-8.48v0c0-4.69-3.8-8.48-8.48-8.48h-27.13
				c-4.69,0-8.48,3.8-8.48,8.48v0C-1753.95-16.35-1750.16-12.55-1745.47-12.55z"/>
			<path class="st7" d="M-1821.79-12.55h27.13c4.69,0,8.48-3.8,8.48-8.48v0c0-4.69-3.8-8.48-8.48-8.48h-27.13
				c-4.69,0-8.48,3.8-8.48,8.48v0C-1830.27-16.35-1826.47-12.55-1821.79-12.55z"/>
			<path class="st7" d="M-1898.1-12.55h27.13c4.69,0,8.48-3.8,8.48-8.48v0c0-4.69-3.8-8.48-8.48-8.48h-27.13
				c-4.69,0-8.48,3.8-8.48,8.48v0C-1906.59-16.35-1902.79-12.55-1898.1-12.55z"/>
			<path class="st7" d="M-1974.42-12.55h27.13c4.69,0,8.48-3.8,8.48-8.48v0c0-4.69-3.8-8.48-8.48-8.48h-27.13
				c-4.69,0-8.48,3.8-8.48,8.48v0C-1982.91-16.35-1979.11-12.55-1974.42-12.55z"/>
			<path class="st7" d="M-2050.74-12.55h27.13c4.69,0,8.48-3.8,8.48-8.48v0c0-4.69-3.8-8.48-8.48-8.48h-27.13
				c-4.69,0-8.48,3.8-8.48,8.48v0C-2059.22-16.35-2055.42-12.55-2050.74-12.55z"/>
			<path class="st7" d="M-2127.06-12.55h27.13c4.69,0,8.48-3.8,8.48-8.48v0c0-4.69-3.8-8.48-8.48-8.48h-27.13
				c-4.69,0-8.48,3.8-8.48,8.48v0C-2135.54-16.35-2131.74-12.55-2127.06-12.55z"/>
		</g>
	</g>
	<g class="st3">
		<path class="st7" d="M-1745.47,115.57h27.13c4.69,0,8.48-3.8,8.48-8.48v0c0-4.69-3.8-8.48-8.48-8.48h-27.13
			c-4.69,0-8.48,3.8-8.48,8.48v0C-1753.95,111.77-1750.16,115.57-1745.47,115.57z"/>
		<path class="st7" d="M-1821.79,115.57h27.13c4.69,0,8.48-3.8,8.48-8.48v0c0-4.69-3.8-8.48-8.48-8.48h-27.13
			c-4.69,0-8.48,3.8-8.48,8.48v0C-1830.27,111.77-1826.47,115.57-1821.79,115.57z"/>
		<path class="st7" d="M-1898.1,115.57h27.13c4.69,0,8.48-3.8,8.48-8.48v0c0-4.69-3.8-8.48-8.48-8.48h-27.13
			c-4.69,0-8.48,3.8-8.48,8.48v0C-1906.59,111.77-1902.79,115.57-1898.1,115.57z"/>
		<path class="st7" d="M-1974.42,115.57h27.13c4.69,0,8.48-3.8,8.48-8.48v0c0-4.69-3.8-8.48-8.48-8.48h-27.13
			c-4.69,0-8.48,3.8-8.48,8.48v0C-1982.91,111.77-1979.11,115.57-1974.42,115.57z"/>
		<path class="st7" d="M-2050.74,115.57h27.13c4.69,0,8.48-3.8,8.48-8.48v0c0-4.69-3.8-8.48-8.48-8.48h-27.13
			c-4.69,0-8.48,3.8-8.48,8.48v0C-2059.22,111.77-2055.42,115.57-2050.74,115.57z"/>
		<path class="st7" d="M-2127.06,115.57h27.13c4.69,0,8.48-3.8,8.48-8.48v0c0-4.69-3.8-8.48-8.48-8.48h-27.13
			c-4.69,0-8.48,3.8-8.48,8.48v0C-2135.54,111.77-2131.74,115.57-2127.06,115.57z"/>
	</g>
	<g class="st3">
		<g>
			<path class="st7" d="M-1819.86,660.86v27.13c0,4.69,3.8,8.48,8.48,8.48l0,0c4.69,0,8.48-3.8,8.48-8.48v-27.13
				c0-4.69-3.8-8.48-8.48-8.48l0,0C-1816.06,652.38-1819.86,656.17-1819.86,660.86z"/>
			<path class="st7" d="M-1819.86,584.54v27.13c0,4.69,3.8,8.48,8.48,8.48l0,0c4.69,0,8.48-3.8,8.48-8.48v-27.13
				c0-4.69-3.8-8.48-8.48-8.48l0,0C-1816.06,576.06-1819.86,579.86-1819.86,584.54z"/>
			<path class="st7" d="M-1819.86,508.22v27.13c0,4.69,3.8,8.48,8.48,8.48l0,0c4.69,0,8.48-3.8,8.48-8.48v-27.13
				c0-4.69-3.8-8.48-8.48-8.48l0,0C-1816.06,499.74-1819.86,503.54-1819.86,508.22z"/>
			<path class="st7" d="M-1819.86,431.91v27.13c0,4.69,3.8,8.48,8.48,8.48l0,0c4.69,0,8.48-3.8,8.48-8.48v-27.13
				c0-4.69-3.8-8.48-8.48-8.48l0,0C-1816.06,423.42-1819.86,427.22-1819.86,431.91z"/>
			<path class="st7" d="M-1819.86,355.59v27.13c0,4.69,3.8,8.48,8.48,8.48l0,0c4.69,0,8.48-3.8,8.48-8.48v-27.13
				c0-4.69-3.8-8.48-8.48-8.48l0,0C-1816.06,347.11-1819.86,350.91-1819.86,355.59z"/>
			<path class="st7" d="M-1819.86,279.27v27.13c0,4.69,3.8,8.48,8.48,8.48l0,0c4.69,0,8.48-3.8,8.48-8.48v-27.13
				c0-4.69-3.8-8.48-8.48-8.48l0,0C-1816.06,270.79-1819.86,274.59-1819.86,279.27z"/>
			<path class="st7" d="M-1819.86,202.96v27.13c0,4.69,3.8,8.48,8.48,8.48l0,0c4.69,0,8.48-3.8,8.48-8.48v-27.13
				c0-4.69-3.8-8.48-8.48-8.48l0,0C-1816.06,194.47-1819.86,198.27-1819.86,202.96z"/>
		</g>
		<g>
			<path class="st7" d="M-1609.8,660.86v27.13c0,4.69,3.8,8.48,8.48,8.48l0,0c4.69,0,8.48-3.8,8.48-8.48v-27.13
				c0-4.69-3.8-8.48-8.48-8.48l0,0C-1606.01,652.38-1609.8,656.17-1609.8,660.86z"/>
			<path class="st7" d="M-1609.8,584.54v27.13c0,4.69,3.8,8.48,8.48,8.48l0,0c4.69,0,8.48-3.8,8.48-8.48v-27.13
				c0-4.69-3.8-8.48-8.48-8.48l0,0C-1606.01,576.06-1609.8,579.86-1609.8,584.54z"/>
			<path class="st7" d="M-1609.8,508.22v27.13c0,4.69,3.8,8.48,8.48,8.48l0,0c4.69,0,8.48-3.8,8.48-8.48v-27.13
				c0-4.69-3.8-8.48-8.48-8.48l0,0C-1606.01,499.74-1609.8,503.54-1609.8,508.22z"/>
			<path class="st7" d="M-1609.8,431.91v27.13c0,4.69,3.8,8.48,8.48,8.48l0,0c4.69,0,8.48-3.8,8.48-8.48v-27.13
				c0-4.69-3.8-8.48-8.48-8.48l0,0C-1606.01,423.42-1609.8,427.22-1609.8,431.91z"/>
			<path class="st7" d="M-1609.8,355.59v27.13c0,4.69,3.8,8.48,8.48,8.48l0,0c4.69,0,8.48-3.8,8.48-8.48v-27.13
				c0-4.69-3.8-8.48-8.48-8.48l0,0C-1606.01,347.11-1609.8,350.91-1609.8,355.59z"/>
			<path class="st7" d="M-1609.8,279.27v27.13c0,4.69,3.8,8.48,8.48,8.48l0,0c4.69,0,8.48-3.8,8.48-8.48v-27.13
				c0-4.69-3.8-8.48-8.48-8.48l0,0C-1606.01,270.79-1609.8,274.59-1609.8,279.27z"/>
			<path class="st7" d="M-1609.8,202.96v27.13c0,4.69,3.8,8.48,8.48,8.48l0,0c4.69,0,8.48-3.8,8.48-8.48v-27.13
				c0-4.69-3.8-8.48-8.48-8.48l0,0C-1606.01,194.47-1609.8,198.27-1609.8,202.96z"/>
		</g>
	</g>
</g>
<g class="st1">
	<path class="st6" d="M1696.69,470.94l-9.81-9.25h-122.81v289.78c0,9.53,7.72,17.25,17.25,17.25h109.36
		c9.53,0,17.25-7.72,17.25-17.25V496.6C1707.93,486.45,1703.6,477.32,1696.69,470.94z M1587.2,735.25c0,2.36-1.91,4.27-4.27,4.27
		s-4.27-1.91-4.27-4.27V721.6c0-2.36,1.91-4.27,4.27-4.27s4.27,1.91,4.27,4.27V735.25z M1587.2,696.85c0,2.36-1.91,4.27-4.27,4.27
		s-4.27-1.91-4.27-4.27V683.2c0-2.36,1.91-4.27,4.27-4.27s4.27,1.91,4.27,4.27V696.85z M1587.2,658.45c0,2.36-1.91,4.27-4.27,4.27
		s-4.27-1.91-4.27-4.27V644.8c0-2.36,1.91-4.27,4.27-4.27s4.27,1.91,4.27,4.27V658.45z M1587.2,620.05c0,2.36-1.91,4.27-4.27,4.27
		s-4.27-1.91-4.27-4.27V606.4c0-2.36,1.91-4.27,4.27-4.27s4.27,1.91,4.27,4.27V620.05z M1587.2,581.66c0,2.36-1.91,4.27-4.27,4.27
		s-4.27-1.91-4.27-4.27V568c0-2.36,1.91-4.27,4.27-4.27s4.27,1.91,4.27,4.27V581.66z M1587.2,543.26c0,2.36-1.91,4.27-4.27,4.27
		s-4.27-1.91-4.27-4.27V529.6c0-2.36,1.91-4.27,4.27-4.27s4.27,1.91,4.27,4.27V543.26z M1587.2,504.86c0,2.36-1.91,4.27-4.27,4.27
		s-4.27-1.91-4.27-4.27V491.2c0-2.36,1.91-4.27,4.27-4.27s4.27,1.91,4.27,4.27V504.86z M1692.89,735.25c0,2.36-1.91,4.27-4.27,4.27
		h0c-2.36,0-4.27-1.91-4.27-4.27V721.6c0-2.36,1.91-4.27,4.27-4.27h0c2.36,0,4.27,1.91,4.27,4.27V735.25z M1692.89,696.85
		c0,2.36-1.91,4.27-4.27,4.27h0c-2.36,0-4.27-1.91-4.27-4.27V683.2c0-2.36,1.91-4.27,4.27-4.27h0c2.36,0,4.27,1.91,4.27,4.27V696.85
		z M1692.89,658.45c0,2.36-1.91,4.27-4.27,4.27h0c-2.36,0-4.27-1.91-4.27-4.27V644.8c0-2.36,1.91-4.27,4.27-4.27h0
		c2.36,0,4.27,1.91,4.27,4.27V658.45z M1692.89,620.05c0,2.36-1.91,4.27-4.27,4.27h0c-2.36,0-4.27-1.91-4.27-4.27V606.4
		c0-2.36,1.91-4.27,4.27-4.27h0c2.36,0,4.27,1.91,4.27,4.27V620.05z M1692.89,581.66c0,2.36-1.91,4.27-4.27,4.27h0
		c-2.36,0-4.27-1.91-4.27-4.27V568c0-2.36,1.91-4.27,4.27-4.27h0c2.36,0,4.27,1.91,4.27,4.27V581.66z M1692.89,543.26
		c0,2.36-1.91,4.27-4.27,4.27h0c-2.36,0-4.27-1.91-4.27-4.27V529.6c0-2.36,1.91-4.27,4.27-4.27h0c2.36,0,4.27,1.91,4.27,4.27V543.26
		z M1692.89,504.86c0,2.36-1.91,4.27-4.27,4.27h0c-2.36,0-4.27-1.91-4.27-4.27V491.2c0-2.36,1.91-4.27,4.27-4.27h0
		c2.36,0,4.27,1.91,4.27,4.27V504.86z"/>
	<path class="st8" d="M1686.88,461.69l-65.32-64.33h-242.1c-0.59,0-1.07,0.48-1.07,1.07v28.36c0,19.28,15.63,34.9,34.9,34.9
		l259.56,0c0,0,15.01,0.52,22.03,7.54L1686.88,461.69z M1437.75,447.23h-13.65c-2.36,0-4.27-1.91-4.27-4.27s1.91-4.27,4.27-4.27
		h13.65c2.36,0,4.27,1.91,4.27,4.27S1440.11,447.23,1437.75,447.23z M1476.15,447.23h-13.65c-2.36,0-4.27-1.91-4.27-4.27
		s1.91-4.27,4.27-4.27h13.65c2.36,0,4.27,1.91,4.27,4.27S1478.5,447.23,1476.15,447.23z M1514.55,447.23h-13.65
		c-2.36,0-4.27-1.91-4.27-4.27s1.91-4.27,4.27-4.27h13.65c2.36,0,4.27,1.91,4.27,4.27S1516.9,447.23,1514.55,447.23z
		 M1552.95,447.23h-13.65c-2.36,0-4.27-1.91-4.27-4.27s1.91-4.27,4.27-4.27h13.65c2.36,0,4.27,1.91,4.27,4.27
		S1555.3,447.23,1552.95,447.23z M1591.35,447.23h-13.65c-2.36,0-4.27-1.91-4.27-4.27s1.91-4.27,4.27-4.27h13.65
		c2.36,0,4.27,1.91,4.27,4.27S1593.7,447.23,1591.35,447.23z M1629.75,447.23h-13.65c-2.36,0-4.27-1.91-4.27-4.27
		s1.91-4.27,4.27-4.27h13.65c2.36,0,4.27,1.91,4.27,4.27S1632.1,447.23,1629.75,447.23z"/>
	<path class="st6" d="M1876.59,253.49h-463.52c-19.15,0-34.68,15.53-34.68,34.68v109.19l0.11,32.17c0,0,0.98-26.32,24.71-32.17
		h473.39c9.4,0,17.03-7.62,17.03-17.03V270.52C1893.62,261.12,1885.99,253.49,1876.59,253.49z M1437.75,382.77h-13.65
		c-2.36,0-4.27-1.91-4.27-4.27s1.91-4.27,4.27-4.27h13.65c2.36,0,4.27,1.91,4.27,4.27S1440.11,382.77,1437.75,382.77z
		 M1437.76,276.62h-13.65c-2.36,0-4.27-1.91-4.27-4.27s1.91-4.27,4.27-4.27h13.65c2.36,0,4.27,1.91,4.27,4.27
		S1440.12,276.62,1437.76,276.62z M1476.15,382.77h-13.65c-2.36,0-4.27-1.91-4.27-4.27s1.91-4.27,4.27-4.27h13.65
		c2.36,0,4.27,1.91,4.27,4.27S1478.5,382.77,1476.15,382.77z M1476.16,276.62h-13.65c-2.36,0-4.27-1.91-4.27-4.27
		s1.91-4.27,4.27-4.27h13.65c2.36,0,4.27,1.91,4.27,4.27S1478.52,276.62,1476.16,276.62z M1514.55,382.77h-13.65
		c-2.36,0-4.27-1.91-4.27-4.27s1.91-4.27,4.27-4.27h13.65c2.36,0,4.27,1.91,4.27,4.27S1516.9,382.77,1514.55,382.77z
		 M1514.56,276.62h-13.65c-2.36,0-4.27-1.91-4.27-4.27s1.91-4.27,4.27-4.27h13.65c2.36,0,4.27,1.91,4.27,4.27
		S1516.92,276.62,1514.56,276.62z M1552.95,382.77h-13.65c-2.36,0-4.27-1.91-4.27-4.27s1.91-4.27,4.27-4.27h13.65
		c2.36,0,4.27,1.91,4.27,4.27S1555.3,382.77,1552.95,382.77z M1552.96,276.62h-13.65c-2.36,0-4.27-1.91-4.27-4.27
		s1.91-4.27,4.27-4.27h13.65c2.36,0,4.27,1.91,4.27,4.27S1555.32,276.62,1552.96,276.62z M1591.35,382.77h-13.65
		c-2.36,0-4.27-1.91-4.27-4.27s1.91-4.27,4.27-4.27h13.65c2.36,0,4.27,1.91,4.27,4.27S1593.7,382.77,1591.35,382.77z
		 M1591.36,276.62h-13.65c-2.36,0-4.27-1.91-4.27-4.27s1.91-4.27,4.27-4.27h13.65c2.36,0,4.27,1.91,4.27,4.27
		S1593.72,276.62,1591.36,276.62z M1629.75,382.77h-13.65c-2.36,0-4.27-1.91-4.27-4.27s1.91-4.27,4.27-4.27h13.65
		c2.36,0,4.27,1.91,4.27,4.27S1632.1,382.77,1629.75,382.77z M1629.76,276.62h-13.65c-2.36,0-4.27-1.91-4.27-4.27
		s1.91-4.27,4.27-4.27h13.65c2.36,0,4.27,1.91,4.27,4.27S1632.11,276.62,1629.76,276.62z M1668.15,382.77h-13.65
		c-2.36,0-4.27-1.91-4.27-4.27s1.91-4.27,4.27-4.27h13.65c2.36,0,4.27,1.91,4.27,4.27S1670.5,382.77,1668.15,382.77z
		 M1668.16,276.62h-13.65c-2.36,0-4.27-1.91-4.27-4.27s1.91-4.27,4.27-4.27h13.65c2.36,0,4.27,1.91,4.27,4.27
		S1670.51,276.62,1668.16,276.62z M1706.54,382.77h-13.65c-2.36,0-4.27-1.91-4.27-4.27s1.91-4.27,4.27-4.27h13.65
		c2.36,0,4.27,1.91,4.27,4.27S1708.9,382.77,1706.54,382.77z M1706.56,276.62h-13.65c-2.36,0-4.27-1.91-4.27-4.27
		s1.91-4.27,4.27-4.27h13.65c2.36,0,4.27,1.91,4.27,4.27S1708.91,276.62,1706.56,276.62z M1744.94,382.77h-13.65
		c-2.36,0-4.27-1.91-4.27-4.27s1.91-4.27,4.27-4.27h13.65c2.36,0,4.27,1.91,4.27,4.27S1747.3,382.77,1744.94,382.77z
		 M1744.96,276.62h-13.65c-2.36,0-4.27-1.91-4.27-4.27s1.91-4.27,4.27-4.27h13.65c2.36,0,4.27,1.91,4.27,4.27
		S1747.31,276.62,1744.96,276.62z M1783.34,382.77h-13.65c-2.36,0-4.27-1.91-4.27-4.27s1.91-4.27,4.27-4.27h13.65
		c2.36,0,4.27,1.91,4.27,4.27S1785.7,382.77,1783.34,382.77z M1783.36,276.62h-13.65c-2.36,0-4.27-1.91-4.27-4.27
		s1.91-4.27,4.27-4.27h13.65c2.36,0,4.27,1.91,4.27,4.27S1785.71,276.62,1783.36,276.62z M1821.74,382.77h-13.65
		c-2.36,0-4.27-1.91-4.27-4.27s1.91-4.27,4.27-4.27h13.65c2.36,0,4.27,1.91,4.27,4.27S1824.1,382.77,1821.74,382.77z
		 M1821.76,276.62h-13.65c-2.36,0-4.27-1.91-4.27-4.27s1.91-4.27,4.27-4.27h13.65c2.36,0,4.27,1.91,4.27,4.27
		S1824.11,276.62,1821.76,276.62z M1860.14,382.77h-13.65c-2.36,0-4.27-1.91-4.27-4.27s1.91-4.27,4.27-4.27h13.65
		c2.36,0,4.27,1.91,4.27,4.27S1862.5,382.77,1860.14,382.77z M1860.15,276.62h-13.65c-2.36,0-4.27-1.91-4.27-4.27
		s1.91-4.27,4.27-4.27h13.65c2.36,0,4.27,1.91,4.27,4.27S1862.51,276.62,1860.15,276.62z"/>
</g>
<g class="st1">
	<path class="st6" d="M2983.2,379.74l-5.83-5.49h-72.93v172.09c0,5.66,4.59,10.25,10.25,10.25h64.95c5.66,0,10.25-4.59,10.25-10.25
		V394.97C2989.88,388.95,2987.31,383.53,2983.2,379.74z M2918.18,536.7c0,1.4-1.14,2.53-2.53,2.53s-2.53-1.13-2.53-2.53v-8.11
		c0-1.4,1.14-2.53,2.53-2.53s2.53,1.13,2.53,2.53V536.7z M2918.18,513.89c0,1.4-1.14,2.53-2.53,2.53s-2.53-1.13-2.53-2.53v-8.11
		c0-1.4,1.14-2.53,2.53-2.53s2.53,1.13,2.53,2.53V513.89z M2918.18,491.09c0,1.4-1.14,2.53-2.53,2.53s-2.53-1.13-2.53-2.53v-8.11
		c0-1.4,1.14-2.53,2.53-2.53s2.53,1.13,2.53,2.53V491.09z M2918.18,468.29c0,1.4-1.14,2.53-2.53,2.53s-2.53-1.13-2.53-2.53v-8.11
		c0-1.4,1.14-2.53,2.53-2.53s2.53,1.13,2.53,2.53V468.29z M2918.18,445.48c0,1.4-1.14,2.53-2.53,2.53s-2.53-1.13-2.53-2.53v-8.11
		c0-1.4,1.14-2.53,2.53-2.53s2.53,1.13,2.53,2.53V445.48z M2918.18,422.68c0,1.4-1.14,2.53-2.53,2.53s-2.53-1.13-2.53-2.53v-8.11
		c0-1.4,1.14-2.53,2.53-2.53s2.53,1.13,2.53,2.53V422.68z M2918.18,399.88c0,1.4-1.14,2.53-2.53,2.53s-2.53-1.13-2.53-2.53v-8.11
		c0-1.4,1.14-2.53,2.53-2.53s2.53,1.13,2.53,2.53V399.88z M2980.95,536.7c0,1.4-1.14,2.53-2.53,2.53l0,0c-1.4,0-2.53-1.13-2.53-2.53
		v-8.11c0-1.4,1.14-2.53,2.53-2.53l0,0c1.4,0,2.53,1.13,2.53,2.53V536.7z M2980.95,513.89c0,1.4-1.14,2.53-2.53,2.53l0,0
		c-1.4,0-2.53-1.13-2.53-2.53v-8.11c0-1.4,1.14-2.53,2.53-2.53l0,0c1.4,0,2.53,1.13,2.53,2.53V513.89z M2980.95,491.09
		c0,1.4-1.14,2.53-2.53,2.53l0,0c-1.4,0-2.53-1.13-2.53-2.53v-8.11c0-1.4,1.14-2.53,2.53-2.53l0,0c1.4,0,2.53,1.13,2.53,2.53V491.09
		z M2980.95,468.29c0,1.4-1.14,2.53-2.53,2.53l0,0c-1.4,0-2.53-1.13-2.53-2.53v-8.11c0-1.4,1.14-2.53,2.53-2.53l0,0
		c1.4,0,2.53,1.13,2.53,2.53V468.29z M2980.95,445.48c0,1.4-1.14,2.53-2.53,2.53l0,0c-1.4,0-2.53-1.13-2.53-2.53v-8.11
		c0-1.4,1.14-2.53,2.53-2.53l0,0c1.4,0,2.53,1.13,2.53,2.53V445.48z M2980.95,422.68c0,1.4-1.14,2.53-2.53,2.53l0,0
		c-1.4,0-2.53-1.13-2.53-2.53v-8.11c0-1.4,1.14-2.53,2.53-2.53l0,0c1.4,0,2.53,1.13,2.53,2.53V422.68z M2980.95,399.88
		c0,1.4-1.14,2.53-2.53,2.53l0,0c-1.4,0-2.53-1.13-2.53-2.53v-8.11c0-1.4,1.14-2.53,2.53-2.53l0,0c1.4,0,2.53,1.13,2.53,2.53V399.88
		z"/>
	<path class="st8" d="M2977.38,374.24l-38.79-38.2h-143.77c-0.35,0-0.64,0.28-0.64,0.64v16.84c0,11.45,9.28,20.73,20.73,20.73
		l154.14,0c0,0,8.91,0.31,13.08,4.48L2977.38,374.24z M2829.43,365.66h-8.11c-1.4,0-2.53-1.13-2.53-2.53s1.13-2.53,2.53-2.53h8.11
		c1.4,0,2.53,1.13,2.53,2.53S2830.83,365.66,2829.43,365.66z M2852.23,365.66h-8.11c-1.4,0-2.53-1.13-2.53-2.53s1.13-2.53,2.53-2.53
		h8.11c1.4,0,2.53,1.13,2.53,2.53S2853.63,365.66,2852.23,365.66z M2875.04,365.66h-8.11c-1.4,0-2.53-1.13-2.53-2.53
		s1.14-2.53,2.53-2.53h8.11c1.4,0,2.53,1.13,2.53,2.53S2876.44,365.66,2875.04,365.66z M2897.84,365.66h-8.11
		c-1.4,0-2.53-1.13-2.53-2.53s1.13-2.53,2.53-2.53h8.11c1.4,0,2.53,1.13,2.53,2.53S2899.24,365.66,2897.84,365.66z M2920.64,365.66
		h-8.11c-1.4,0-2.53-1.13-2.53-2.53s1.14-2.53,2.53-2.53h8.11c1.4,0,2.53,1.13,2.53,2.53S2922.04,365.66,2920.64,365.66z
		 M2943.45,365.66h-8.11c-1.4,0-2.53-1.13-2.53-2.53s1.13-2.53,2.53-2.53h8.11c1.4,0,2.53,1.13,2.53,2.53
		S2944.85,365.66,2943.45,365.66z"/>
	<path class="st6" d="M3090.03,250.6h-275.26c-11.37,0-20.59,9.22-20.59,20.59v64.84l0.06,19.1c0,0,0.58-15.63,14.67-19.1h281.12
		c5.58,0,10.11-4.53,10.11-10.11v-65.21C3100.15,255.13,3095.62,250.6,3090.03,250.6z M2829.43,327.37h-8.11
		c-1.4,0-2.53-1.13-2.53-2.53s1.13-2.53,2.53-2.53h8.11c1.4,0,2.53,1.13,2.53,2.53S2830.83,327.37,2829.43,327.37z M2829.44,264.34
		h-8.11c-1.4,0-2.53-1.13-2.53-2.53c0-1.4,1.14-2.53,2.53-2.53h8.11c1.4,0,2.53,1.13,2.53,2.53
		C2831.97,263.2,2830.84,264.34,2829.44,264.34z M2852.23,327.37h-8.11c-1.4,0-2.53-1.13-2.53-2.53s1.13-2.53,2.53-2.53h8.11
		c1.4,0,2.53,1.13,2.53,2.53S2853.63,327.37,2852.23,327.37z M2852.24,264.34h-8.11c-1.4,0-2.53-1.13-2.53-2.53
		c0-1.4,1.14-2.53,2.53-2.53h8.11c1.4,0,2.53,1.13,2.53,2.53C2854.78,263.2,2853.64,264.34,2852.24,264.34z M2875.04,327.37h-8.11
		c-1.4,0-2.53-1.13-2.53-2.53s1.14-2.53,2.53-2.53h8.11c1.4,0,2.53,1.13,2.53,2.53S2876.44,327.37,2875.04,327.37z M2875.04,264.34
		h-8.11c-1.4,0-2.53-1.13-2.53-2.53c0-1.4,1.13-2.53,2.53-2.53h8.11c1.4,0,2.53,1.13,2.53,2.53
		C2877.58,263.2,2876.44,264.34,2875.04,264.34z M2897.84,327.37h-8.11c-1.4,0-2.53-1.13-2.53-2.53s1.13-2.53,2.53-2.53h8.11
		c1.4,0,2.53,1.13,2.53,2.53S2899.24,327.37,2897.84,327.37z M2897.85,264.34h-8.11c-1.4,0-2.53-1.13-2.53-2.53
		c0-1.4,1.14-2.53,2.53-2.53h8.11c1.4,0,2.53,1.13,2.53,2.53C2900.38,263.2,2899.25,264.34,2897.85,264.34z M2920.64,327.37h-8.11
		c-1.4,0-2.53-1.13-2.53-2.53s1.14-2.53,2.53-2.53h8.11c1.4,0,2.53,1.13,2.53,2.53S2922.04,327.37,2920.64,327.37z M2920.65,264.34
		h-8.11c-1.4,0-2.53-1.13-2.53-2.53c0-1.4,1.13-2.53,2.53-2.53h8.11c1.4,0,2.53,1.13,2.53,2.53
		C2923.19,263.2,2922.05,264.34,2920.65,264.34z M2943.45,327.37h-8.11c-1.4,0-2.53-1.13-2.53-2.53s1.13-2.53,2.53-2.53h8.11
		c1.4,0,2.53,1.13,2.53,2.53S2944.85,327.37,2943.45,327.37z M2943.46,264.34h-8.11c-1.4,0-2.53-1.13-2.53-2.53
		c0-1.4,1.14-2.53,2.53-2.53h8.11c1.4,0,2.53,1.13,2.53,2.53C2945.99,263.2,2944.85,264.34,2943.46,264.34z M2966.25,327.37h-8.11
		c-1.4,0-2.53-1.13-2.53-2.53s1.14-2.53,2.53-2.53h8.11c1.4,0,2.53,1.13,2.53,2.53S2967.65,327.37,2966.25,327.37z M2966.26,264.34
		h-8.11c-1.4,0-2.53-1.13-2.53-2.53c0-1.4,1.13-2.53,2.53-2.53h8.11c1.4,0,2.53,1.13,2.53,2.53
		C2968.79,263.2,2967.66,264.34,2966.26,264.34z M2989.05,327.37h-8.11c-1.4,0-2.53-1.13-2.53-2.53s1.14-2.53,2.53-2.53h8.11
		c1.4,0,2.53,1.13,2.53,2.53S2990.45,327.37,2989.05,327.37z M2989.06,264.34h-8.11c-1.4,0-2.53-1.13-2.53-2.53
		c0-1.4,1.13-2.53,2.53-2.53h8.11c1.4,0,2.53,1.13,2.53,2.53C2991.6,263.2,2990.46,264.34,2989.06,264.34z M3011.86,327.37h-8.11
		c-1.4,0-2.53-1.13-2.53-2.53s1.13-2.53,2.53-2.53h8.11c1.4,0,2.53,1.13,2.53,2.53S3013.26,327.37,3011.86,327.37z M3011.87,264.34
		h-8.11c-1.4,0-2.53-1.13-2.53-2.53c0-1.4,1.14-2.53,2.53-2.53h8.11c1.4,0,2.53,1.13,2.53,2.53
		C3014.4,263.2,3013.27,264.34,3011.87,264.34z M3034.66,327.37h-8.11c-1.4,0-2.53-1.13-2.53-2.53s1.14-2.53,2.53-2.53h8.11
		c1.4,0,2.53,1.13,2.53,2.53S3036.06,327.37,3034.66,327.37z M3034.67,264.34h-8.11c-1.4,0-2.53-1.13-2.53-2.53
		c0-1.4,1.13-2.53,2.53-2.53h8.11c1.4,0,2.53,1.13,2.53,2.53C3037.2,263.2,3036.07,264.34,3034.67,264.34z M3057.47,327.37h-8.11
		c-1.4,0-2.53-1.13-2.53-2.53s1.13-2.53,2.53-2.53h8.11c1.4,0,2.53,1.13,2.53,2.53S3058.87,327.37,3057.47,327.37z M3057.47,264.34
		h-8.11c-1.4,0-2.53-1.13-2.53-2.53c0-1.4,1.14-2.53,2.53-2.53h8.11c1.4,0,2.53,1.13,2.53,2.53
		C3060.01,263.2,3058.87,264.34,3057.47,264.34z M3080.27,327.37h-8.11c-1.4,0-2.53-1.13-2.53-2.53s1.14-2.53,2.53-2.53h8.11
		c1.4,0,2.53,1.13,2.53,2.53S3081.67,327.37,3080.27,327.37z M3080.28,264.34h-8.11c-1.4,0-2.53-1.13-2.53-2.53
		c0-1.4,1.13-2.53,2.53-2.53h8.11c1.4,0,2.53,1.13,2.53,2.53C3082.81,263.2,3081.68,264.34,3080.28,264.34z"/>
</g>
<g>
	<path class="st4" d="M632.62,432.18l-19.5-18.39H369.03v575.92c0,18.94,15.35,34.29,34.29,34.29h217.35
		c18.94,0,34.29-15.35,34.29-34.29V483.16C654.96,462.99,646.35,444.85,632.62,432.18z M415.01,957.48c0,4.69-3.8,8.48-8.48,8.48
		s-8.48-3.8-8.48-8.48v-27.13c0-4.69,3.8-8.48,8.48-8.48s8.48,3.8,8.48,8.48V957.48z M415.01,881.16c0,4.69-3.8,8.48-8.48,8.48
		s-8.48-3.8-8.48-8.48v-27.13c0-4.69,3.8-8.48,8.48-8.48s8.48,3.8,8.48,8.48V881.16z M415.01,804.84c0,4.69-3.8,8.48-8.48,8.48
		s-8.48-3.8-8.48-8.48v-27.13c0-4.69,3.8-8.48,8.48-8.48s8.48,3.8,8.48,8.48V804.84z M415.01,728.52c0,4.69-3.8,8.48-8.48,8.48
		s-8.48-3.8-8.48-8.48v-27.13c0-4.69,3.8-8.48,8.48-8.48s8.48,3.8,8.48,8.48V728.52z M415.01,652.21c0,4.69-3.8,8.48-8.48,8.48
		s-8.48-3.8-8.48-8.48v-27.13c0-4.69,3.8-8.48,8.48-8.48s8.48,3.8,8.48,8.48V652.21z M415.01,575.89c0,4.69-3.8,8.48-8.48,8.48
		s-8.48-3.8-8.48-8.48v-27.13c0-4.69,3.8-8.48,8.48-8.48s8.48,3.8,8.48,8.48V575.89z M415.01,499.57c0,4.69-3.8,8.48-8.48,8.48
		s-8.48-3.8-8.48-8.48v-27.13c0-4.69,3.8-8.48,8.48-8.48s8.48,3.8,8.48,8.48V499.57z M625.07,957.47c0,4.69-3.8,8.48-8.48,8.48h0
		c-4.69,0-8.48-3.8-8.48-8.48v-27.13c0-4.69,3.8-8.48,8.48-8.48h0c4.69,0,8.48,3.8,8.48,8.48V957.47z M625.07,881.16
		c0,4.69-3.8,8.48-8.48,8.48h0c-4.69,0-8.48-3.8-8.48-8.48v-27.13c0-4.69,3.8-8.48,8.48-8.48h0c4.69,0,8.48,3.8,8.48,8.48V881.16z
		 M625.07,804.84c0,4.69-3.8,8.48-8.48,8.48h0c-4.69,0-8.48-3.8-8.48-8.48v-27.13c0-4.69,3.8-8.48,8.48-8.48h0
		c4.69,0,8.48,3.8,8.48,8.48V804.84z M625.07,728.52c0,4.69-3.8,8.48-8.48,8.48h0c-4.69,0-8.48-3.8-8.48-8.48v-27.13
		c0-4.69,3.8-8.48,8.48-8.48h0c4.69,0,8.48,3.8,8.48,8.48V728.52z M625.07,652.21c0,4.69-3.8,8.48-8.48,8.48h0
		c-4.69,0-8.48-3.8-8.48-8.48v-27.13c0-4.69,3.8-8.48,8.48-8.48h0c4.69,0,8.48,3.8,8.48,8.48V652.21z M625.07,575.89
		c0,4.69-3.8,8.48-8.48,8.48h0c-4.69,0-8.48-3.8-8.48-8.48v-27.13c0-4.69,3.8-8.48,8.48-8.48h0c4.69,0,8.48,3.8,8.48,8.48V575.89z
		 M625.07,499.57c0,4.69-3.8,8.48-8.48,8.48h0c-4.69,0-8.48-3.8-8.48-8.48v-27.13c0-4.69,3.8-8.48,8.48-8.48h0
		c4.69,0,8.48,3.8,8.48,8.48V499.57z"/>
	<path class="st9" d="M613.12,413.79L483.29,285.93H2.13c-1.17,0-2.13,0.95-2.13,2.13v56.36c0,38.31,31.06,69.37,69.37,69.37
		l515.85,0.01c0,0,29.83,1.03,43.78,14.98L613.12,413.79z M117.98,385.05H90.85c-4.69,0-8.48-3.8-8.48-8.48s3.8-8.48,8.48-8.48
		h27.13c4.69,0,8.48,3.8,8.48,8.48S122.67,385.05,117.98,385.05z M194.3,385.05h-27.13c-4.69,0-8.48-3.8-8.48-8.48
		s3.8-8.48,8.48-8.48h27.13c4.69,0,8.48,3.8,8.48,8.48S198.98,385.05,194.3,385.05z M270.62,385.05h-27.13
		c-4.69,0-8.48-3.8-8.48-8.48s3.8-8.48,8.48-8.48h27.13c4.69,0,8.48,3.8,8.48,8.48S275.3,385.05,270.62,385.05z M346.93,385.05
		H319.8c-4.69,0-8.48-3.8-8.48-8.48s3.8-8.48,8.48-8.48h27.13c4.69,0,8.48,3.8,8.48,8.48S351.62,385.05,346.93,385.05z
		 M423.25,385.05h-27.13c-4.69,0-8.48-3.8-8.48-8.48s3.8-8.48,8.48-8.48h27.13c4.69,0,8.48,3.8,8.48,8.48
		S427.93,385.05,423.25,385.05z M499.57,385.05h-27.13c-4.69,0-8.48-3.8-8.48-8.48s3.8-8.48,8.48-8.48h27.13
		c4.69,0,8.48,3.8,8.48,8.48S504.25,385.05,499.57,385.05z"/>
	<path class="st4" d="M990.15,0H68.92C30.86,0,0,30.86,0,68.92v217.01l0.21,63.93c0,0,1.94-52.3,49.1-63.93h940.84
		c18.69,0,33.84-15.15,33.84-33.84V33.84C1023.99,15.15,1008.84,0,990.15,0z M117.98,256.93H90.85c-4.69,0-8.48-3.8-8.48-8.48
		c0-4.69,3.8-8.48,8.48-8.48h27.13c4.69,0,8.48,3.8,8.48,8.48C126.46,253.13,122.67,256.93,117.98,256.93z M118.01,45.96H90.87
		c-4.69,0-8.48-3.8-8.48-8.48S86.19,29,90.87,29h27.13c4.69,0,8.48,3.8,8.48,8.48S122.69,45.96,118.01,45.96z M194.3,256.93h-27.13
		c-4.69,0-8.48-3.8-8.48-8.48c0-4.69,3.8-8.48,8.48-8.48h27.13c4.69,0,8.48,3.8,8.48,8.48C202.78,253.13,198.98,256.93,194.3,256.93
		z M194.32,45.96h-27.13c-4.69,0-8.48-3.8-8.48-8.48s3.8-8.48,8.48-8.48h27.13c4.69,0,8.48,3.8,8.48,8.48S199.01,45.96,194.32,45.96
		z M270.62,256.93h-27.13c-4.69,0-8.48-3.8-8.48-8.48c0-4.69,3.8-8.48,8.48-8.48h27.13c4.69,0,8.48,3.8,8.48,8.48
		C279.1,253.13,275.3,256.93,270.62,256.93z M270.64,45.96h-27.13c-4.69,0-8.48-3.8-8.48-8.48s3.8-8.48,8.48-8.48h27.13
		c4.69,0,8.48,3.8,8.48,8.48S275.32,45.96,270.64,45.96z M346.93,256.93H319.8c-4.69,0-8.48-3.8-8.48-8.48
		c0-4.69,3.8-8.48,8.48-8.48h27.13c4.69,0,8.48,3.8,8.48,8.48C355.42,253.13,351.62,256.93,346.93,256.93z M346.96,45.96h-27.13
		c-4.69,0-8.48-3.8-8.48-8.48s3.8-8.48,8.48-8.48h27.13c4.69,0,8.48,3.8,8.48,8.48S351.64,45.96,346.96,45.96z M423.25,256.93
		h-27.13c-4.69,0-8.48-3.8-8.48-8.48c0-4.69,3.8-8.48,8.48-8.48h27.13c4.69,0,8.48,3.8,8.48,8.48
		C431.73,253.13,427.93,256.93,423.25,256.93z M423.27,45.96h-27.13c-4.69,0-8.48-3.8-8.48-8.48s3.8-8.48,8.48-8.48h27.13
		c4.69,0,8.48,3.8,8.48,8.48S427.96,45.96,423.27,45.96z M499.57,256.93h-27.13c-4.69,0-8.48-3.8-8.48-8.48
		c0-4.69,3.8-8.48,8.48-8.48h27.13c4.69,0,8.48,3.8,8.48,8.48C508.05,253.13,504.25,256.93,499.57,256.93z M499.59,45.96h-27.13
		c-4.69,0-8.48-3.8-8.48-8.48s3.8-8.48,8.48-8.48h27.13c4.69,0,8.48,3.8,8.48,8.48S504.28,45.96,499.59,45.96z M575.88,256.93
		h-27.13c-4.69,0-8.48-3.8-8.48-8.48c0-4.69,3.8-8.48,8.48-8.48h27.13c4.69,0,8.48,3.8,8.48,8.48
		C584.37,253.13,580.57,256.93,575.88,256.93z M575.91,45.96h-27.13c-4.69,0-8.48-3.8-8.48-8.48s3.8-8.48,8.48-8.48h27.13
		c4.69,0,8.48,3.8,8.48,8.48S580.59,45.96,575.91,45.96z M652.2,256.93h-27.13c-4.69,0-8.48-3.8-8.48-8.48
		c0-4.69,3.8-8.48,8.48-8.48h27.13c4.69,0,8.48,3.8,8.48,8.48C660.68,253.13,656.89,256.93,652.2,256.93z M652.22,45.96h-27.13
		c-4.69,0-8.48-3.8-8.48-8.48s3.8-8.48,8.48-8.48h27.13c4.69,0,8.48,3.8,8.48,8.48S656.91,45.96,652.22,45.96z M728.52,256.93
		h-27.13c-4.69,0-8.48-3.8-8.48-8.48c0-4.69,3.8-8.48,8.48-8.48h27.13c4.69,0,8.48,3.8,8.48,8.48
		C737,253.13,733.2,256.93,728.52,256.93z M728.54,45.96h-27.13c-4.69,0-8.48-3.8-8.48-8.48s3.8-8.48,8.48-8.48h27.13
		c4.69,0,8.48,3.8,8.48,8.48S733.23,45.96,728.54,45.96z M804.83,256.93H777.7c-4.69,0-8.48-3.8-8.48-8.48
		c0-4.69,3.8-8.48,8.48-8.48h27.13c4.69,0,8.48,3.8,8.48,8.48C813.32,253.13,809.52,256.93,804.83,256.93z M804.86,45.96h-27.13
		c-4.69,0-8.48-3.8-8.48-8.48s3.8-8.48,8.48-8.48h27.13c4.69,0,8.48,3.8,8.48,8.48S809.54,45.96,804.86,45.96z M881.15,256.93
		h-27.13c-4.69,0-8.48-3.8-8.48-8.48c0-4.69,3.8-8.48,8.48-8.48h27.13c4.69,0,8.48,3.8,8.48,8.48
		C889.63,253.13,885.84,256.93,881.15,256.93z M881.17,45.96h-27.13c-4.69,0-8.48-3.8-8.48-8.48s3.8-8.48,8.48-8.48h27.13
		c4.69,0,8.48,3.8,8.48,8.48S885.86,45.96,881.17,45.96z M957.47,256.93h-27.13c-4.69,0-8.48-3.8-8.48-8.48
		c0-4.69,3.8-8.48,8.48-8.48h27.13c4.69,0,8.48,3.8,8.48,8.48C965.95,253.13,962.15,256.93,957.47,256.93z M957.49,45.96h-27.13
		c-4.69,0-8.48-3.8-8.48-8.48s3.8-8.48,8.48-8.48h27.13c4.69,0,8.48,3.8,8.48,8.48S962.18,45.96,957.49,45.96z"/>
</g>
</svg>
